# xmcd CD database file
#
# Track frame offsets:
#	150
#	31556
#	59645
#	78045
#	99876
#	125311
#	169053
#
# Disc length: 2716 seconds
#
# Revision: 0
# Processed by: cddbd v1.5.2PL0 Copyright (c) Steve Scherf et al.
# Submitted via: CDex 1.70beta2
#
DISCID=450a9a07
DTITLE=Yelena Eckemoff - Nocturnal Animals
DYEAR=2019
DGENRE=Jazz
TTITLE0=Cicada
TTITLE1=Bat
TTITLE2=Walkingstick
TTITLE3=Fox
TTITLE4=Grizzly Bear
TTITLE5=Rattlesnake
TTITLE6=Wolf
EXTD=YEAR: 2019
EXTT0=
EXTT1=
EXTT2=
EXTT3=
EXTT4=
EXTT5=
EXTT6=
PLAYORDER=
